<?xml version="1.0" standalone="no"?>
<!DOCTYPE svg PUBLIC "-//W3C//DTD SVG 20010904//EN"
 "http://www.w3.org/TR/2001/REC-SVG-20010904/DTD/svg10.dtd">
<svg version="1.0" xmlns="http://www.w3.org/2000/svg"
 width="1024.000000pt" height="1024.000000pt" viewBox="0 0 1024.000000 1024.000000"
 preserveAspectRatio="xMidYMid meet">
<metadata>
Created by potrace 1.14, written by Peter Selinger 2001-2017
</metadata>
<g transform="translate(0.000000,1024.000000) scale(0.100000,-0.100000)"
fill="#000000" stroke="none">
<path d="M1874 7519 c-3 -6 -68 -316 -80 -384 -3 -16 -14 -70 -24 -120 -11
-49 -21 -101 -24 -115 -5 -26 -64 -321 -71 -355 -7 -32 -24 -118 -29 -145 -2
-14 -15 -79 -29 -145 -14 -66 -28 -133 -31 -150 -2 -16 -23 -120 -46 -230 -22
-110 -42 -211 -45 -225 -2 -14 -16 -81 -30 -150 -14 -69 -28 -141 -31 -160 -3
-19 -8 -38 -10 -41 -2 -4 -6 -24 -10 -45 -3 -22 -51 -259 -106 -529 -55 -269
-102 -503 -105 -520 -3 -16 -20 -106 -40 -200 -19 -93 -36 -181 -39 -195 -2
-14 -9 -47 -15 -75 -6 -27 -13 -61 -15 -75 -2 -14 -9 -47 -14 -75 -6 -27 -12
-61 -15 -75 -4 -24 -10 -51 -20 -95 -44 -201 -120 -611 -115 -615 6 -4 618 -5
666 -1 8 1 46 166 61 261 1 8 18 90 37 181 19 91 37 179 40 195 2 16 12 65 21
109 9 44 18 89 20 100 3 11 25 119 49 240 25 121 47 234 50 250 3 17 19 95 35
175 27 131 35 169 47 235 2 11 15 74 29 140 14 66 28 135 31 154 3 18 7 41 9
50 15 70 90 439 100 491 3 14 25 126 51 250 25 124 47 236 50 250 2 14 18 90
34 170 16 80 32 160 35 179 3 19 7 37 9 40 2 3 7 28 10 55 4 27 9 53 12 58 3
4 7 20 9 35 3 25 13 76 30 153 3 14 12 59 20 100 8 41 17 86 19 99 19 87 119
581 122 601 9 51 26 135 30 145 5 11 -675 15 -682 4z"/>
<path d="M8816 7395 c-14 -71 -39 -197 -56 -280 -17 -82 -32 -159 -34 -170 -2
-11 -11 -54 -19 -95 -9 -41 -18 -86 -21 -100 -3 -14 -7 -36 -10 -50 -5 -22
-11 -53 -32 -165 -3 -16 -23 -115 -45 -220 -22 -104 -42 -202 -44 -216 -5 -30
-21 -107 -70 -349 -19 -96 -38 -188 -40 -205 -3 -16 -8 -37 -10 -45 -2 -8 -7
-28 -9 -45 -3 -16 -19 -97 -37 -180 -17 -82 -33 -161 -35 -175 -3 -14 -38
-191 -80 -395 -41 -203 -76 -381 -79 -395 -3 -14 -12 -59 -20 -100 -8 -41 -17
-84 -19 -95 -2 -11 -16 -81 -31 -155 -15 -74 -28 -139 -29 -145 -2 -5 -8 -35
-14 -65 -6 -30 -14 -66 -16 -80 -4 -20 -22 -109 -51 -250 -2 -8 -17 -87 -35
-175 -17 -88 -33 -169 -35 -180 -3 -11 -16 -74 -29 -140 -13 -66 -21 -122 -16
-125 6 -4 614 -5 666 -1 6 1 16 34 23 74 7 39 15 78 17 86 4 11 54 259 78 381
2 14 12 59 21 100 9 41 18 91 21 110 3 19 12 63 20 98 7 34 16 74 19 90 4 26
22 114 30 157 27 128 108 527 112 550 2 17 11 62 20 100 8 39 17 81 19 95 3
14 43 216 90 450 48 234 87 432 89 440 2 8 26 130 55 270 28 140 54 269 56
285 3 17 9 46 14 65 5 19 12 51 15 70 6 36 15 80 109 545 30 149 57 283 60
299 3 16 10 52 16 80 6 28 12 60 14 71 4 21 53 262 56 280 1 6 2 15 1 20 -1 6
-122 10 -340 10 l-340 0 -25 -130z"/>
<path d="M5498 7078 c87 -115 221 -358 287 -518 15 -36 44 -117 65 -181 33
-99 45 -147 76 -294 5 -23 11 -73 23 -168 9 -78 7 -306 -3 -387 -17 -134 -78
-375 -100 -397 -5 -6 -184 106 -311 194 -49 34 -98 68 -109 75 -36 25 -422
313 -461 345 -257 208 -382 312 -471 390 -12 10 -49 43 -84 73 -35 30 -71 62
-80 70 -16 14 -187 172 -250 230 -15 14 -86 84 -160 155 l-132 130 52 -80 c75
-113 292 -410 428 -585 53 -67 325 -405 331 -410 3 -3 31 -34 61 -70 30 -36
60 -70 65 -76 6 -6 35 -39 65 -74 30 -34 66 -75 80 -89 14 -15 45 -49 70 -76
l45 -48 -40 23 c-123 71 -456 301 -711 491 -142 106 -601 465 -624 489 -3 3
-34 30 -70 60 -36 30 -67 57 -70 60 -3 3 -23 20 -45 39 -22 18 -61 54 -87 78
-27 24 -48 41 -48 38 0 -36 581 -768 802 -1010 15 -16 35 -39 45 -51 19 -22
152 -168 211 -232 246 -265 606 -600 840 -782 39 -30 71 -58 72 -62 1 -20
-334 -162 -432 -182 -94 -20 -180 -36 -218 -41 -80 -11 -363 -14 -435 -5 -38
5 -92 12 -120 16 -128 15 -325 67 -505 134 -167 62 -463 216 -585 305 -90 67
-92 65 -30 -25 78 -114 113 -158 204 -264 109 -127 246 -259 376 -363 44 -35
94 -75 110 -88 17 -14 34 -25 38 -25 4 0 17 -8 28 -19 31 -29 264 -164 384
-223 226 -111 488 -194 740 -234 115 -18 451 -27 540 -14 33 4 76 11 95 13
188 27 353 82 570 192 202 101 325 135 480 130 222 -6 366 -99 505 -324 31
-51 40 -47 60 30 17 61 14 244 -5 344 -44 232 -146 461 -292 652 l-39 51 20
80 c12 44 27 126 34 183 18 137 13 441 -8 519 -2 8 -7 35 -10 60 -3 25 -13 72
-22 105 -8 33 -17 69 -19 80 -2 11 -20 70 -40 130 -103 310 -273 606 -508 885
-64 75 -305 309 -386 373 -84 67 -262 192 -308 216 -20 11 -17 4 16 -41z"/>
</g>
</svg>
