<?xml version="1.0" encoding="UTF-8" standalone="no"?>
<!-- Created with Inkscape (http://www.inkscape.org/) -->

<svg
   xmlns:dc="http://purl.org/dc/elements/1.1/"
   xmlns:cc="http://creativecommons.org/ns#"
   xmlns:rdf="http://www.w3.org/1999/02/22-rdf-syntax-ns#"
   xmlns:svg="http://www.w3.org/2000/svg"
   xmlns="http://www.w3.org/2000/svg"
   xmlns:sodipodi="http://sodipodi.sourceforge.net/DTD/sodipodi-0.dtd"
   xmlns:inkscape="http://www.inkscape.org/namespaces/inkscape"
   width="16px"
   height="16px"
   id="svg91320"
   version="1.1"
   inkscape:version="0.48.2 r9819"
   sodipodi:docname="icon-whole-word.svg">
  <defs
     id="defs91322" />
  <sodipodi:namedview
     id="base"
     pagecolor="#ffffff"
     bordercolor="#666666"
     borderopacity="1.0"
     inkscape:pageopacity="0.0"
     inkscape:pageshadow="2"
     inkscape:zoom="44.395604"
     inkscape:cx="15.401578"
     inkscape:cy="10.872471"
     inkscape:current-layer="layer1"
     showgrid="true"
     inkscape:grid-bbox="true"
     inkscape:document-units="px"
     inkscape:window-width="2560"
     inkscape:window-height="1468"
     inkscape:window-x="0"
     inkscape:window-y="0"
     inkscape:window-maximized="1" />
  <metadata
     id="metadata91325">
    <rdf:RDF>
      <cc:Work
         rdf:about="">
        <dc:format>image/svg+xml</dc:format>
        <dc:type
           rdf:resource="http://purl.org/dc/dcmitype/StillImage" />
        <dc:title></dc:title>
      </cc:Work>
    </rdf:RDF>
  </metadata>
  <g
     id="layer1"
     inkscape:label="Layer 1"
     inkscape:groupmode="layer">
    <path
       inkscape:connector-curvature="0"
       id="path92079"
       style="font-size:16px;font-style:normal;font-variant:normal;font-weight:normal;font-stretch:normal;text-align:start;line-height:125%;letter-spacing:0px;word-spacing:0px;writing-mode:lr-tb;text-anchor:start;fill:#000000;fill-opacity:1;stroke:none;font-family:Times New Roman;-inkscape-font-specification:'Times New Roman,'"
       d="m 2.5743811,10.925464 c 0.7184811,6e-6 1.3223162,0.252243 1.8115066,0.756707 0.4891752,0.489187 0.7337664,1.085375 0.733775,1.788575 -8.6e-6,0.703201 -0.2522426,1.307036 -0.7567055,1.811506 -0.4891904,0.489184 -1.0853819,0.733775 -1.7885761,0.733775 -0.7032061,0 -1.3070412,-0.244582 -1.81150676,-0.733775 C 0.27368746,14.777782 0.02909593,14.173947 0.02909945,13.470746 0.02909593,12.752261 0.27368717,12.148425 0.76287434,11.659239 1.2673399,11.17006 1.871175,10.92547 2.5743811,10.925464" />
    <path
       inkscape:connector-curvature="0"
       id="path92081"
       style="font-size:16px;font-style:normal;font-variant:normal;font-weight:normal;font-stretch:normal;text-align:start;line-height:125%;letter-spacing:0px;word-spacing:0px;writing-mode:lr-tb;text-anchor:start;fill:#000000;fill-opacity:1;stroke:none;font-family:Times New Roman;-inkscape-font-specification:'Times New Roman,'"
       d="M 10.231147,5.6408756 C 10.19152,4.9575121 10.052876,4.2790852 9.8151781,3.605593 9.4784333,2.6350144 9.3100657,1.9664918 9.3100714,1.6000227 9.3100657,1.085032 9.4289201,0.69382237 9.6666173,0.42639252 9.9142122,0.15900413 10.216285,0.02529956 10.572839,0.02527844 c 0.307017,2.112e-5 0.574427,0.13372561 0.802228,0.40111408 0.227784,0.26742985 0.341679,0.64873538 0.341689,1.14391798 -10e-6,0.4457014 -0.133719,1.0696561 -0.401113,1.8718656 -0.257514,0.7923411 -0.41598,1.5252403 -0.475395,2.1986995 0.544713,-0.3466259 1.034964,-0.7675478 1.470751,-1.2627666 0.673465,-0.7824026 1.173619,-1.2677004 1.500465,-1.4558956 0.326822,-0.1881592 0.658607,-0.2822468 0.995355,-0.2822655 0.326823,1.87e-5 0.599184,0.113916 0.817086,0.3416898 0.227779,0.2179072 0.341676,0.4803643 0.341689,0.7873721 -1.3e-5,0.3664669 -0.163422,0.6933003 -0.490249,0.9805011 -0.326848,0.2872335 -1.143932,0.574451 -2.451255,0.8616525 -0.762622,0.1683847 -1.39648,0.3615132 -1.901577,0.579387 0.515002,0.267424 1.143909,0.470457 1.886723,0.6090992 1.198378,0.2179033 1.980797,0.4902644 2.347259,0.8170843 0.376341,0.3268469 0.564518,0.6833924 0.564532,1.0696374 -1.4e-5,0.2971338 -0.113905,0.5546389 -0.341691,0.7725161 C 15.361435,9.6767883 15.10393,9.7857323 14.806819,9.7857207 14.509687,9.7857323 14.177902,9.6817392 13.811464,9.4737435 13.454907,9.2657704 12.969608,8.8002802 12.355568,8.0772722 11.949492,7.5919873 11.444385,7.1364013 10.840248,6.7105131 c 0.01979,0.5645448 0.1337,1.1785953 0.341689,1.8421536 0.356539,1.1686897 0.534809,1.9659653 0.534819,2.3918283 -10e-6,0.396172 -0.118849,0.73291 -0.356545,1.010214 -0.237706,0.267418 -0.49026,0.401122 -0.75766,0.401114 -0.366458,8e-6 -0.6982438,-0.1436 -0.995358,-0.430828 C 9.3992021,11.717021 9.2952087,11.385235 9.2952163,10.929639 9.2952087,10.454256 9.4091018,9.8847734 9.6369051,9.2211902 9.8646914,8.5477273 10.0083,8.0871893 10.067732,7.839575 10.127157,7.5820832 10.181618,7.2057297 10.231154,6.7105131 9.6468086,7.0967852 9.1367501,7.5276111 8.700979,8.0029919 7.9779781,8.8151363 7.4332558,9.3301466 7.0668105,9.5480239 6.8093006,9.7064997 6.5418912,9.7857323 6.2645822,9.7857207 5.9278413,9.7857323 5.6406232,9.6718354 5.4029298,9.4440313 5.1652287,9.21625 5.0463801,8.963697 5.0463839,8.6863713 5.0463801,8.4387829 5.145418,8.1812777 5.3435054,7.9138554 5.5514868,7.6365555 5.8585118,7.4087624 6.2645822,7.2304759 6.5319879,7.1116405 7.1410861,6.9531765 8.0918788,6.7550813 8.7059248,6.6263426 9.3051197,6.4381665 9.8894651,6.1905504 9.3546387,5.9231562 8.7158283,5.7151713 7.9730302,5.5665952 6.7548281,5.3091057 6.0021207,5.0763607 5.7149064,4.8683594 5.2692222,4.5415423 5.0463801,4.1453808 5.0463839,3.6798734 5.0463801,3.4124817 5.1553252,3.1698327 5.3732176,2.9519255 5.6010076,2.7241509 5.8634653,2.6102545 6.1605888,2.6102357 6.4874186,2.6102545 6.8340611,2.7142463 7.2005142,2.9222134 7.5669596,3.1302166 8.0225454,3.5511383 8.5672733,4.18498 9.1119898,4.8089515 9.6666173,5.2942497 10.231154,5.6408756" />
  </g>
</svg>
